<?xml version="1.0" encoding="UTF-8"?>
<svg version="1.1" xmlns="http://www.w3.org/2000/svg" width="500" height="500">
<path d="M0 0 C165 0 330 0 500 0 C500 165 500 330 500 500 C335 500 170 500 0 500 C0 335 0 170 0 0 Z " fill="#F5F6FB" transform="translate(0,0)"/>
<path d="M0 0 C2.58015238 1.08289051 4.93027047 2.17811075 7.375 3.5 C8.01566406 3.83386719 8.65632813 4.16773437 9.31640625 4.51171875 C10.88333671 5.33026451 12.44250241 6.16364513 14 7 C14 7.66 14 8.32 14 9 C14.78375 9.20625 15.5675 9.4125 16.375 9.625 C20.1855339 11.07037493 23.30846798 12.89543026 26.765625 15.02734375 C30.9535003 17.58154306 35.19228374 20.04261325 39.4375 22.5 C40.26258057 22.97872559 41.08766113 23.45745117 41.93774414 23.95068359 C47.28887441 27.04448027 52.67608621 30.03360162 58.1640625 32.87890625 C60 34 60 34 61 36 C61.08573394 38.25120742 61.10712188 40.50499303 61.09765625 42.7578125 C61.0962413 43.42086395 61.09482635 44.08391541 61.09336853 44.76705933 C61.08776754 46.88641863 61.075215 49.00567259 61.0625 51.125 C61.05748512 52.56119639 61.05292219 53.99739444 61.04882812 55.43359375 C61.03779782 58.95576345 61.02053259 62.47787145 61 66 C60.071875 66.45375 59.14375 66.9075 58.1875 67.375 C54.96078611 68.9421633 54.96078611 68.9421633 52 71 C51.01 71 50.02 71 49 71 C49.00112793 70.20303711 49.00225586 69.40607422 49.00341797 68.58496094 C48.99130957 64.97244536 48.93367284 61.36204672 48.875 57.75 C48.87757813 56.49574219 48.88015625 55.24148437 48.8828125 53.94921875 C49.05846559 47.73002941 49.05846559 47.73002941 46.60644531 42.31835938 C44.79516497 41.10902521 44.79516497 41.10902521 42 40 C42 39.34 42 38.68 42 38 C40.96939453 37.86658203 40.96939453 37.86658203 39.91796875 37.73046875 C36.34036739 36.83487109 33.44949811 35.18279931 30.3125 33.3125 C29.70180664 32.95526855 29.09111328 32.59803711 28.46191406 32.22998047 C26.63727224 31.15995086 24.81860191 30.08025256 23 29 C21.98808594 28.40832031 20.97617187 27.81664062 19.93359375 27.20703125 C13.2912234 23.2912234 13.2912234 23.2912234 11 21 C8.68191636 19.96514123 6.34824702 18.9644586 4 18 C3.34 17.67 2.68 17.34 2 17 C2 16.34 2 15.68 2 15 C-5.98376478 15.98523055 -11.312874 18.69543942 -18 23 C-20.73639614 24.64825948 -23.49283822 26.26177683 -26.25 27.875 C-26.97533936 28.30095459 -27.70067871 28.72690918 -28.44799805 29.16577148 C-33.24702359 31.98193104 -38.05306669 34.78573151 -42.875 37.5625 C-43.98617187 38.20316406 -45.09734375 38.84382813 -46.2421875 39.50390625 C-49 41 -49 41 -52 42 C-52.06948809 49.77116308 -52.12280502 57.54225348 -52.15543652 65.31364918 C-52.1710975 68.92218303 -52.19234315 72.53050444 -52.22631836 76.13891602 C-52.25889717 79.62078122 -52.27684975 83.10244201 -52.28463173 86.58444786 C-52.29287856 88.56042097 -52.31630038 90.53631175 -52.33988953 92.51216125 C-52.34011612 93.71317978 -52.34034271 94.9141983 -52.34057617 96.15161133 C-52.34723801 97.21084305 -52.35389984 98.27007477 -52.36076355 99.36140442 C-51.94736213 102.38498917 -51.38583646 103.1843547 -49 105 C-42.90133327 109.25464419 -36.46683846 112.8922047 -29.91015625 116.3828125 C-25.44379207 118.86479206 -21.15457133 121.61585669 -16.84765625 124.36328125 C-14.45172487 125.74036664 -12.69306102 126.55223805 -10 127 C-10 127.66 -10 128.32 -10 129 C-5.26447922 130.51536665 -1.12565191 130.91312771 3.46655273 128.94042969 C6.33881708 127.4083465 9.14046062 125.79046569 11.9375 124.125 C12.9486084 123.53799316 13.9597168 122.95098633 15.00146484 122.34619141 C22.36152438 118.04728201 29.63584741 113.60960145 36.8203125 109.0234375 C44.71428571 104 44.71428571 104 47 104 C47.94216012 101.17351964 48.0800279 99.63070003 48 96.7265625 C47.92377803 83.29704042 47.92377803 83.29704042 50.9609375 79.63671875 C54.43310028 77.73208577 57.04067346 77 61 77 C61.14873164 81.60801142 61.257388 86.21461592 61.32958984 90.82446289 C61.35969601 92.39111679 61.4005923 93.95760303 61.45263672 95.52368164 C61.52573887 97.78053143 61.55951301 100.03514796 61.5859375 102.29296875 C61.61690521 102.98899704 61.64787292 103.68502533 61.67977905 104.40214539 C61.68168703 107.18213255 61.53847991 109.3518755 59.72320557 111.53677368 C56.44967988 114.32903951 52.86946746 116.17907413 49 118 C43.80949693 120.73239897 38.79598271 123.72055817 33.8125 126.8125 C28.66106656 130.00662889 23.46077456 133.08249004 18.17675781 136.05200195 C15.30982425 137.66535319 12.48798968 139.31894733 9.6953125 141.05859375 C5.62600481 143.58034677 2.12480043 145.74346657 -2.5625 146.8125 C-7.95379758 145.5381933 -12.28576361 142.85074022 -17 140 C-18.20664824 139.28060718 -19.41369675 138.56188542 -20.62109375 137.84375 C-23.18716187 136.31264835 -25.74762944 134.77266048 -28.3046875 133.2265625 C-34.6961481 129.36663451 -41.14990987 125.61320411 -47.64453125 121.9296875 C-48.26513428 121.57720947 -48.8857373 121.22473145 -49.52514648 120.86157227 C-51.27324496 119.8702064 -53.02328267 118.88226231 -54.7734375 117.89453125 C-63.47745358 112.78381963 -63.47745358 112.78381963 -66 109 C-66.30780029 105.91497803 -66.30780029 105.91497803 -66.38574219 102.06933594 C-66.41027466 101.01752892 -66.41027466 101.01752892 -66.43530273 99.94447327 C-66.48491481 97.62447488 -66.51801743 95.30472055 -66.546875 92.984375 C-66.55752235 92.19048622 -66.56816971 91.39659744 -66.57913971 90.57865143 C-66.63256431 86.37555304 -66.6713234 82.17257257 -66.70019531 77.96923828 C-66.72686564 74.49583448 -66.78253758 71.02478387 -66.86425781 67.55224609 C-66.96306306 63.35336172 -67.01245141 59.15660873 -67.02664948 54.95661163 C-67.0400496 53.3600765 -67.07043335 51.76358671 -67.11843109 50.16771698 C-67.47194509 37.70131969 -67.47194509 37.70131969 -63.83912659 33.50239563 C-61.29221422 31.69153532 -58.82984579 30.31363445 -56 29 C-54.70069501 28.24385723 -53.40615482 27.47932348 -52.12109375 26.69921875 C-50.89592025 26.02374162 -49.66799635 25.35323132 -48.4375 24.6875 C-47.04867734 23.92072134 -45.66068385 23.15243932 -44.2734375 22.3828125 C-43.56928711 21.99254883 -42.86513672 21.60228516 -42.13964844 21.20019531 C-38.58370837 19.205558 -35.07311752 17.13555572 -31.5625 15.0625 C-30.86592285 14.65362549 -30.1693457 14.24475098 -29.45166016 13.82348633 C-25.73039574 11.63428076 -22.03384333 9.41147834 -18.359375 7.14453125 C-17.59810303 6.68103271 -16.83683105 6.21753418 -16.05249023 5.73999023 C-14.59737672 4.85328292 -13.14852172 3.95619241 -11.70727539 3.04711914 C-7.66659749 0.60042037 -4.84790335 -0.80267519 0 0 Z " fill="#494259" transform="translate(252,110)"/>
<path d="M0 0 C0.66 0.33 1.32 0.66 2 1 C2 1.66 2 2.32 2 3 C2.886875 3.268125 3.77375 3.53625 4.6875 3.8125 C7.76877548 4.91710819 10.26221405 6.22849144 13 8 C12.624653 10.57775071 12.28516942 11.74081565 10.328125 13.51953125 C4.65688666 17.04806488 4.65688666 17.04806488 1.4375 16.8125 C0.633125 16.544375 -0.17125 16.27625 -1 16 C-7.62975381 15.23502841 -11.57610684 17.55625831 -17 21 C-16.62446309 23.5471199 -16.29946609 24.72840784 -14.36328125 26.484375 C-13.34814453 27.11085937 -13.34814453 27.11085937 -12.3125 27.75 C-11.64863281 28.17796875 -10.98476562 28.6059375 -10.30078125 29.046875 C-7.33264666 30.27645877 -5.20219936 30.22123211 -2 30 C0.61188255 28.97802083 0.61188255 28.97802083 3.07421875 27.4453125 C4.44610352 26.64673828 4.44610352 26.64673828 5.84570312 25.83203125 C6.78349609 25.26871094 7.72128906 24.70539063 8.6875 24.125 C9.63689453 23.56941406 10.58628906 23.01382813 11.56445312 22.44140625 C15.09866942 20.36539809 18.58905425 18.27396384 22 16 C27.32572374 15.43619187 31.2781829 16.94775817 35.67822266 19.87939453 C41.27949182 27.40783013 39.05337109 39.00660554 38.6875 47.9375 C38.6322985 50.26616135 38.58211269 52.59494737 38.53710938 54.92382812 C38.41613537 60.61861157 38.2323446 66.30873074 38 72 C37.29504395 72.39268066 36.59008789 72.78536133 35.86376953 73.18994141 C32.6165818 74.99996267 29.37078565 76.81246577 26.125 78.625 C25.01640625 79.24246094 23.9078125 79.85992187 22.765625 80.49609375 C16.82056132 83.81833522 10.92586579 87.19630886 5.11669922 90.75146484 C-0.41599762 94.01492639 -3.68878421 94.51977052 -10 93 C-13.02230141 91.73236953 -15.77038295 90.14626517 -18.5625 88.4375 C-19.6462793 87.80038086 -19.6462793 87.80038086 -20.75195312 87.15039062 C-22.50969525 86.11437043 -24.25611071 85.05917202 -26 84 C-26 83.34 -26 82.68 -26 82 C-27.258125 81.649375 -28.51625 81.29875 -29.8125 80.9375 C-31.55070976 80.31641636 -33.27927597 79.66800214 -35 79 C-35.95326172 78.65195313 -36.90652344 78.30390625 -37.88867188 77.9453125 C-41.33176382 76.29932391 -43.49048363 74.902232 -46 72 C-47.84620303 65.94813886 -47.02821251 59.28941568 -46.6875 53.0625 C-46.63227567 51.31200225 -46.58209372 49.5613377 -46.53710938 47.81054688 C-46.4163323 43.53622689 -46.22687182 39.26994969 -46 35 C-44.68 35 -43.36 35 -42 35 C-42 35.66 -42 36.32 -42 37 C-41.071875 37.28875 -40.14375 37.5775 -39.1875 37.875 C-36 39 -36 39 -33 41 C-32.56762695 43.33837891 -32.56762695 43.33837891 -32.48828125 46.2265625 C-32.45283203 47.2578125 -32.41738281 48.2890625 -32.38085938 49.3515625 C-32.35830078 50.43179688 -32.33574219 51.51203125 -32.3125 52.625 C-32.26125977 54.25695312 -32.26125977 54.25695312 -32.20898438 55.921875 C-32.12631666 58.61448063 -32.05722913 61.30675291 -32 64 C-31.34 64.33 -30.68 64.66 -30 65 C-30 65.66 -30 66.32 -30 67 C-28.77603516 67.33451172 -28.77603516 67.33451172 -27.52734375 67.67578125 C-22.37171607 69.61128267 -17.95534157 72.61566896 -13.36523438 75.63085938 C-9.97621436 77.73491403 -7.70118034 78.95638197 -3.671875 79.20703125 C1.79566032 77.40972443 6.43448962 74.51712789 11.3125 71.5 C13.28766599 70.30192765 15.26292182 69.10400339 17.23828125 67.90625 C18.10493408 67.37322266 18.97158691 66.84019531 19.86450195 66.29101562 C22 65 22 65 24 64 C24.33 53.11 24.66 42.22 25 31 C23.68 31.66 22.36 32.32 21 33 C20.01 33 19.02 33 18 33 C18 33.66 18 34.32 18 35 C14.82983156 36.88504991 11.63662093 38.7270854 8.4375 40.5625 C7.54224609 41.09552734 6.64699219 41.62855469 5.72460938 42.17773438 C1.65085218 44.49067344 -1.0422487 45.99012628 -5.7890625 46.0390625 C-9.1363316 44.95588296 -11.82329415 43.664908 -14.8125 41.8125 C-15.84632813 41.18214844 -16.88015625 40.55179688 -17.9453125 39.90234375 C-18.95335937 39.27457031 -19.96140625 38.64679688 -21 38 C-22.72721945 36.95510777 -24.45625449 35.91320798 -26.1875 34.875 C-26.98542969 34.39289063 -27.78335938 33.91078125 -28.60546875 33.4140625 C-31.75591322 31.55360426 -34.96261964 29.80573948 -38.1875 28.078125 C-40.71316552 26.57578947 -41.84939844 25.55722576 -42.625 22.6875 C-42 20 -42 20 -40.4855957 18.81958008 C-39.82648193 18.43181396 -39.16736816 18.04404785 -38.48828125 17.64453125 C-37.76157227 17.21116455 -37.03486328 16.77779785 -36.28613281 16.33129883 C-35.53170898 15.89197021 -34.77728516 15.4526416 -34 15 C-32.95730957 14.37677856 -32.95730957 14.37677856 -31.89355469 13.7409668 C-27.59302114 11.1716659 -23.26042653 8.65729693 -18.93066406 6.13769531 C-17.33285179 5.1961418 -15.7536054 4.22316126 -14.1796875 3.2421875 C-9.17345925 0.1896093 -5.88048505 -0.61899843 0 0 Z " fill="#4A4259" transform="translate(254,136)"/>
<path d="M0 0 C0.71636627 0.00187317 1.43273254 0.00374634 2.17080688 0.00567627 C3.6855332 0.01239401 5.20024224 0.02630316 6.71484375 0.046875 C9.02360319 0.07791714 11.33167788 0.0878372 13.640625 0.09375 C15.11459158 0.1029256 16.58855127 0.11330314 18.0625 0.125 C19.09242569 0.13137482 19.09242569 0.13137482 20.14315796 0.13787842 C23.74886375 0.19112265 27.2087937 0.24359593 30.6640625 1.328125 C31.3240625 2.318125 31.9840625 3.308125 32.6640625 4.328125 C33.17163086 3.67618164 33.67919922 3.02423828 34.20214844 2.35253906 C37.5775782 -0.42305233 39.7256362 -0.1312151 44.0546875 -0.0625 C45.11160797 -0.05401031 45.11160797 -0.05401031 46.18988037 -0.04534912 C48.43197678 -0.02302578 50.67245238 0.02715746 52.9140625 0.078125 C54.43747685 0.09819548 55.96091636 0.1164453 57.484375 0.1328125 C61.2114608 0.17682382 64.93760337 0.24582128 68.6640625 0.328125 C68.6640625 2.638125 68.6640625 4.948125 68.6640625 7.328125 C59.0940625 7.328125 49.5240625 7.328125 39.6640625 7.328125 C39.6640625 9.638125 39.6640625 11.948125 39.6640625 14.328125 C40.36490967 14.30717773 41.06575684 14.28623047 41.7878418 14.26464844 C44.97560169 14.18129452 48.16313202 14.12940361 51.3515625 14.078125 C52.45435547 14.04460937 53.55714844 14.01109375 54.69335938 13.9765625 C62.73078418 13.8794335 62.73078418 13.8794335 66.9140625 15.890625 C69.32351052 19.24664188 69.16582364 21.49008435 68.9765625 25.578125 C68.93144531 26.84140625 68.88632812 28.1046875 68.83984375 29.40625 C68.78183594 30.37046875 68.72382813 31.3346875 68.6640625 32.328125 C68.0040625 32.328125 67.3440625 32.328125 66.6640625 32.328125 C66.0040625 33.648125 65.3440625 34.968125 64.6640625 36.328125 C60.143396 36.35281357 55.6227686 36.37097949 51.10205078 36.38305664 C49.56363237 36.38809052 48.02521875 36.39491808 46.48681641 36.40356445 C44.27765724 36.41567139 42.06856124 36.42136269 39.859375 36.42578125 C39.16973663 36.43094254 38.48009827 36.43610382 37.76956177 36.44142151 C32.89180591 36.44199671 32.89180591 36.44199671 30.6640625 35.328125 C30.3340625 36.318125 30.0040625 37.308125 29.6640625 38.328125 C29.6640625 37.668125 29.6640625 37.008125 29.6640625 36.328125 C28.59446289 36.35430908 27.52486328 36.38049316 26.42285156 36.4074707 C22.44975755 36.49805607 18.47675452 36.55540357 14.50292969 36.6027832 C12.78402349 36.62790867 11.06522394 36.66201547 9.34667969 36.70532227 C6.87408136 36.76606529 4.40289644 36.79435262 1.9296875 36.81640625 C1.16287659 36.84221268 0.39606567 36.8680191 -0.39398193 36.89460754 C-4.11172026 36.89655637 -5.95797424 36.65106994 -8.8215332 34.2043457 C-10.6059633 30.81528057 -10.83830641 28.6394295 -10.83203125 24.8203125 C-10.83299805 22.96986328 -10.83299805 22.96986328 -10.83398438 21.08203125 C-10.81400391 19.80199219 -10.79402344 18.52195312 -10.7734375 17.203125 C-10.78052734 15.91535156 -10.78761719 14.62757813 -10.79492188 13.30078125 C-10.7317587 4.02065385 -10.7317587 4.02065385 -9.26733398 1.45849609 C-6.3013644 -0.27737032 -3.33699406 -0.05965435 0 0 Z " fill="#F2F3FA" transform="translate(307.3359375,345.671875)"/>
<path d="M0 0 C5.1975 -0.103125 10.395 -0.20625 15.75 -0.3125 C17.38420898 -0.35802002 19.01841797 -0.40354004 20.70214844 -0.45043945 C21.9915332 -0.46292725 23.28091797 -0.47541504 24.609375 -0.48828125 C25.92905273 -0.51446533 27.24873047 -0.54064941 28.60839844 -0.56762695 C32 0 32 0 34.42871094 2.15551758 C36.21418966 5.38774452 36.51518042 7.32695376 36.53125 11 C36.53898437 12.7015625 36.53898437 12.7015625 36.546875 14.4375 C36.53140625 15.613125 36.5159375 16.78875 36.5 18 C36.51546875 19.175625 36.5309375 20.35125 36.546875 21.5625 C36.54171875 22.696875 36.5365625 23.83125 36.53125 25 C36.52673828 26.03125 36.52222656 27.0625 36.51757812 28.125 C35.84404199 31.86630258 34.84507124 33.47495637 32 36 C28.60839844 36.56762695 28.60839844 36.56762695 24.609375 36.48828125 C23.31999023 36.47579346 22.03060547 36.46330566 20.70214844 36.45043945 C19.06793945 36.40491943 17.43373047 36.35939941 15.75 36.3125 C10.5525 36.209375 5.355 36.10625 0 36 C0 24.12 0 12.24 0 0 Z " fill="#463F56" transform="translate(232,291)"/>
<path d="M0 0 C2.03363557 0.01390395 4.06269783 -0.02025537 6.09594727 -0.05834961 C7.37663086 -0.05641602 8.65731445 -0.05448242 9.97680664 -0.05249023 C11.7374646 -0.05357788 11.7374646 -0.05357788 13.53369141 -0.0546875 C16.47290039 0.57641602 16.47290039 0.57641602 18.34960938 2.74072266 C20.38759756 7.88552439 19.98488894 13.10963574 19.97290039 18.57641602 C20.00125977 19.75204102 20.02961914 20.92766602 20.05883789 22.13891602 C20.06979016 26.95791532 20.01226241 30.52772606 17.78930664 34.84985352 C12.35461642 37.6792211 6.93828385 37.29634331 0.91040039 37.20141602 C-0.93714844 37.23041992 -0.93714844 37.23041992 -2.82202148 37.26000977 C-4.59609375 37.2503418 -4.59609375 37.2503418 -6.40600586 37.24047852 C-7.48438721 37.23483887 -8.56276855 37.22919922 -9.67382812 37.22338867 C-12.52709961 36.57641602 -12.52709961 36.57641602 -14.87646484 34.42578125 C-16.79753126 31.10959043 -17.04241724 29.13461444 -17.05834961 25.32250977 C-17.06350586 24.13850586 -17.06866211 22.95450195 -17.07397461 21.73461914 C-17.05850586 20.50678711 -17.04303711 19.27895508 -17.02709961 18.01391602 C-17.04256836 16.7822168 -17.05803711 15.55051758 -17.07397461 14.28149414 C-17.06881836 13.0987793 -17.06366211 11.91606445 -17.05834961 10.69750977 C-17.05383789 9.61912842 -17.04932617 8.54074707 -17.04467773 7.4296875 C-15.42821052 -1.48146928 -7.27115837 -0.06965218 0 0 Z " fill="#474156" transform="translate(183.527099609375,345.423583984375)"/>
<path d="M0 0 C5.011875 -0.103125 10.02375 -0.20625 15.1875 -0.3125 C16.76039795 -0.35802002 18.3332959 -0.40354004 19.95385742 -0.45043945 C21.20013916 -0.46292725 22.4464209 -0.47541504 23.73046875 -0.48828125 C25.00301514 -0.51446533 26.27556152 -0.54064941 27.58666992 -0.56762695 C31.89401764 0.14867256 33.329967 1.61993832 36 5 C37.176993 10.08811879 36.8090544 14.65157599 34.125 19.125 C30.85294756 22.01210509 29.05550935 22.12118412 24.7734375 22.09765625 C23.7421875 22.09443359 22.7109375 22.09121094 21.6484375 22.08789062 C20.02808594 22.07532227 20.02808594 22.07532227 18.375 22.0625 C16.74304688 22.05573242 16.74304688 22.05573242 15.078125 22.04882812 C12.38539338 22.0370179 9.69268991 22.01908205 7 22 C7 26.62 7 31.24 7 36 C4.69 36 2.38 36 0 36 C0 24.12 0 12.24 0 0 Z " fill="#464056" transform="translate(189,291)"/>
<path d="M0 0 C1.05692047 0.00848969 1.05692047 0.00848969 2.13519287 0.01715088 C4.37728928 0.03947422 6.61776488 0.08965746 8.859375 0.140625 C10.38278935 0.16069548 11.90622886 0.1789453 13.4296875 0.1953125 C17.1567733 0.23932382 20.88291587 0.30832128 24.609375 0.390625 C24.609375 2.700625 24.609375 5.010625 24.609375 7.390625 C15.039375 7.390625 5.469375 7.390625 -4.390625 7.390625 C-4.390625 9.700625 -4.390625 12.010625 -4.390625 14.390625 C-3.68977783 14.36967773 -2.98893066 14.34873047 -2.2668457 14.32714844 C0.92091419 14.24379452 4.10844452 14.19190361 7.296875 14.140625 C8.39966797 14.10710937 9.50246094 14.07359375 10.63867188 14.0390625 C18.67609668 13.9419335 18.67609668 13.9419335 22.859375 15.953125 C25.26882302 19.30914188 25.11113614 21.55258435 24.921875 25.640625 C24.87675781 26.90390625 24.83164062 28.1671875 24.78515625 29.46875 C24.69814453 30.91507812 24.69814453 30.91507812 24.609375 32.390625 C23.949375 32.390625 23.289375 32.390625 22.609375 32.390625 C21.949375 33.710625 21.289375 35.030625 20.609375 36.390625 C10.049375 36.390625 -0.510625 36.390625 -11.390625 36.390625 C-11.390625 34.080625 -11.390625 31.770625 -11.390625 29.390625 C-1.820625 29.390625 7.749375 29.390625 17.609375 29.390625 C17.609375 27.080625 17.609375 24.770625 17.609375 22.390625 C16.90329102 22.41157227 16.19720703 22.43251953 15.46972656 22.45410156 C12.26642124 22.53731798 9.06334337 22.58930285 5.859375 22.640625 C4.19261719 22.69089844 4.19261719 22.69089844 2.4921875 22.7421875 C1.42226563 22.75507813 0.35234375 22.76796875 -0.75 22.78125 C-2.22678223 22.8126709 -2.22678223 22.8126709 -3.73339844 22.84472656 C-7.12350171 22.26538146 -8.25143492 21.01849357 -10.390625 18.390625 C-11.73346149 15.70495203 -11.63350019 13.51315647 -11.703125 10.515625 C-11.74050781 9.46632813 -11.77789062 8.41703125 -11.81640625 7.3359375 C-10.81320805 0.39638298 -6.21624457 -0.09867055 0 0 Z " fill="#474056" transform="translate(351.390625,345.609375)"/>
<path d="M0 0 C0.72680969 0.00565979 1.45361938 0.01131958 2.20245361 0.01715088 C4.51585745 0.03947947 6.8276922 0.08966452 9.140625 0.140625 C10.71221716 0.16069477 12.28383368 0.17894471 13.85546875 0.1953125 C17.70112217 0.23933207 21.54560789 0.30833125 25.390625 0.390625 C25.390625 2.700625 25.390625 5.010625 25.390625 7.390625 C15.490625 7.390625 5.590625 7.390625 -4.609375 7.390625 C-4.609375 14.650625 -4.609375 21.910625 -4.609375 29.390625 C2.980625 29.390625 10.570625 29.390625 18.390625 29.390625 C18.390625 26.750625 18.390625 24.110625 18.390625 21.390625 C13.440625 21.390625 8.490625 21.390625 3.390625 21.390625 C3.390625 19.080625 3.390625 16.770625 3.390625 14.390625 C10.650625 14.390625 17.910625 14.390625 25.390625 14.390625 C25.5453125 18.165 25.5453125 18.165 25.703125 22.015625 C25.74864502 22.79631348 25.79416504 23.57700195 25.84106445 24.38134766 C25.9164781 28.21430686 25.40661949 30.35805174 23.6796875 33.875 C20.92705998 36.73047937 18.29150646 36.87688328 14.42578125 37.1171875 C12.10131747 37.11453552 9.77671071 37.07956517 7.453125 37.015625 C5.70225586 37.02529297 5.70225586 37.02529297 3.91601562 37.03515625 C-0.80372814 36.97599137 -4.86621405 36.61964461 -9.38671875 35.2265625 C-13.27232414 30.2688305 -12.38705846 24.47353421 -12.234375 18.390625 C-12.24082031 17.10671875 -12.24726563 15.8228125 -12.25390625 14.5 C-12.14698664 5.20771403 -12.14698664 5.20771403 -10.04736328 2.01660156 C-6.73368487 -0.19340226 -3.84394249 -0.11317729 0 0 Z " fill="#4D465B" transform="translate(221.609375,345.609375)"/>
<path d="M0 0 C1.02150398 0.01061211 1.02150398 0.01061211 2.06364441 0.0214386 C4.2245687 0.04928056 6.38283697 0.11198598 8.54296875 0.17578125 C10.01363427 0.20087793 11.48434068 0.22368872 12.95507812 0.24414062 C16.54772832 0.29906937 20.13883903 0.38526478 23.73046875 0.48828125 C23.73046875 2.79828125 23.73046875 5.10828125 23.73046875 7.48828125 C14.16046875 7.48828125 4.59046875 7.48828125 -5.26953125 7.48828125 C-5.26953125 9.79828125 -5.26953125 12.10828125 -5.26953125 14.48828125 C4.30046875 14.48828125 13.87046875 14.48828125 23.73046875 14.48828125 C23.73046875 16.79828125 23.73046875 19.10828125 23.73046875 21.48828125 C14.16046875 21.48828125 4.59046875 21.48828125 -5.26953125 21.48828125 C-5.26953125 24.12828125 -5.26953125 26.76828125 -5.26953125 29.48828125 C4.30046875 29.48828125 13.87046875 29.48828125 23.73046875 29.48828125 C23.73046875 31.79828125 23.73046875 34.10828125 23.73046875 36.48828125 C19.40724414 36.6122816 15.08497273 36.70280381 10.76049805 36.76293945 C9.2909135 36.78801769 7.82145288 36.82208981 6.35229492 36.86547852 C4.23455194 36.92643624 2.11846299 36.95455441 0 36.9765625 C-1.27254639 37.00274658 -2.54509277 37.02893066 -3.85620117 37.0559082 C-8.23852068 36.3271411 -9.66220066 35.04168032 -12.26953125 31.48828125 C-12.91650391 28.61328125 -12.91650391 28.61328125 -12.93359375 25.48828125 C-12.94003906 24.35390625 -12.94648438 23.21953125 -12.953125 22.05078125 C-12.93378906 20.87515625 -12.91445313 19.69953125 -12.89453125 18.48828125 C-12.91386719 17.31265625 -12.93320312 16.13703125 -12.953125 14.92578125 C-12.94667969 13.79140625 -12.94023437 12.65703125 -12.93359375 11.48828125 C-12.9279541 10.45703125 -12.92231445 9.42578125 -12.91650391 8.36328125 C-11.31578718 1.25005852 -6.67162947 -0.13727633 0 0 Z " fill="#484257" transform="translate(287.26953125,290.51171875)"/>
<path d="M0 0 C2.64 0 5.28 0 8 0 C8 9.9 8 19.8 8 30 C14.93 30 21.86 30 29 30 C29 20.1 29 10.2 29 0 C31.64 0 34.28 0 37 0 C37.14876435 4.46560056 37.25740399 8.92987491 37.32958984 13.3972168 C37.35969086 14.91537611 37.40058346 16.43336251 37.45263672 17.95092773 C37.52576394 20.13829199 37.55951745 22.3233517 37.5859375 24.51171875 C37.6173584 25.82615967 37.6487793 27.14060059 37.68115234 28.49487305 C37 32 37 32 34.36035156 34.92651367 C30.72446034 37.17002022 28.86905272 37.64190538 24.6484375 37.6640625 C23.46765625 37.67050781 22.286875 37.67695313 21.0703125 37.68359375 C19.85085937 37.66425781 18.63140625 37.64492188 17.375 37.625 C16.1478125 37.64433594 14.920625 37.66367187 13.65625 37.68359375 C12.47804687 37.67714844 11.29984375 37.67070312 10.0859375 37.6640625 C8.4779126 37.65560303 8.4779126 37.65560303 6.83740234 37.64697266 C4 37 4 37 1.64404297 34.92651367 C-0.44121998 31.21459698 -0.45827221 28.75658138 -0.390625 24.51171875 C-0.38496521 23.80852005 -0.37930542 23.10532135 -0.37347412 22.3808136 C-0.35119769 20.14899752 -0.30102373 17.91882539 -0.25 15.6875 C-0.22992343 14.16864309 -0.21167468 12.64976084 -0.1953125 11.13085938 C-0.15136357 7.42004455 -0.08239921 3.7101829 0 0 Z " fill="#635E72" transform="translate(145,290)"/>
<path d="M0 0 C11.88 0 23.76 0 36 0 C36 2.31 36 4.62 36 7 C31.05 7 26.1 7 21 7 C21 14.26 21 21.52 21 29 C25.95 29 30.9 29 36 29 C36 31.31 36 33.62 36 36 C24.12 36 12.24 36 0 36 C0 33.69 0 31.38 0 29 C4.62 29 9.24 29 14 29 C14 21.74 14 14.48 14 7 C9.38 7 4.76 7 0 7 C0 4.69 0 2.38 0 0 Z " fill="#474156" transform="translate(254,346)"/>
<path d="M0 0 C0.72822464 0.00424484 1.45644928 0.00848969 2.20674133 0.01286316 C4.53013252 0.02964142 6.85265275 0.0672902 9.17578125 0.10546875 C10.75194059 0.12051678 12.32811354 0.13420498 13.90429688 0.14648438 C17.76596002 0.1795419 21.62697303 0.23131681 25.48828125 0.29296875 C25.48828125 2.60296875 25.48828125 4.91296875 25.48828125 7.29296875 C15.91828125 7.29296875 6.34828125 7.29296875 -3.51171875 7.29296875 C-3.51171875 14.55296875 -3.51171875 21.81296875 -3.51171875 29.29296875 C6.05828125 29.29296875 15.62828125 29.29296875 25.48828125 29.29296875 C25.48828125 31.60296875 25.48828125 33.91296875 25.48828125 36.29296875 C21.00432822 36.4167612 16.52128523 36.50739446 12.03613281 36.56762695 C10.51121695 36.59273978 8.9864211 36.62683758 7.46191406 36.67016602 C5.26727699 36.73096919 3.07423315 36.75920762 0.87890625 36.78125 C-0.44077148 36.80743408 -1.76044922 36.83361816 -3.12011719 36.8605957 C-6.51171875 36.29296875 -6.51171875 36.29296875 -8.94262695 34.16918945 C-10.79555075 30.77269105 -11.01414732 28.64058109 -11.0078125 24.78515625 C-11.0087793 22.93470703 -11.0087793 22.93470703 -11.00976562 21.046875 C-10.98978516 19.76683594 -10.96980469 18.48679687 -10.94921875 17.16796875 C-10.95630859 15.88019531 -10.96339844 14.59242188 -10.97070312 13.265625 C-10.90759518 3.99361155 -10.90759518 3.99361155 -9.45410156 1.42114258 C-6.43511822 -0.33234184 -3.38935793 -0.07429782 0 0 Z " fill="#454055" transform="translate(307.51171875,345.70703125)"/>
<path d="M0 0 C2.31 0 4.62 0 7 0 C6.98839844 0.56920166 6.97679687 1.13840332 6.96484375 1.72485352 C6.47889783 12.72937971 6.47889783 12.72937971 9.70703125 22.921875 C11.79094885 24.79314795 13.35269919 26.0815487 16 27 C19.40834585 26.71215505 21.17262909 25.22241827 23.625 22.9375 C26.79058824 20 26.79058824 20 29 20 C29 13.4 29 6.8 29 0 C31.31 0 33.62 0 36 0 C36.14567407 3.56206722 36.23419196 7.12336551 36.3125 10.6875 C36.35439453 11.69490234 36.39628906 12.70230469 36.43945312 13.74023438 C36.56351492 21.25837932 36.56351492 21.25837932 33.73828125 24.9765625 C32.83464844 25.64429688 31.93101562 26.31203125 31 27 C30.29617188 27.64324219 29.59234375 28.28648437 28.8671875 28.94921875 C28.20976562 29.52285156 27.55234375 30.09648437 26.875 30.6875 C26.21242188 31.26886719 25.54984375 31.85023438 24.8671875 32.44921875 C20.58524451 36.00556052 20.58524451 36.00556052 16.7109375 35.96875 C12.10178423 34.76551841 9.91565362 32.80731516 6.625 29.5 C5.82642578 28.73236328 5.82642578 28.73236328 5.01171875 27.94921875 C0.00622721 23.12203988 0.00622721 23.12203988 -0.11352539 20.77514648 C-0.10828857 19.81680908 -0.10305176 18.85847168 -0.09765625 17.87109375 C-0.09443359 16.83662109 -0.09121094 15.80214844 -0.08789062 14.73632812 C-0.07951172 13.64771484 -0.07113281 12.55910156 -0.0625 11.4375 C-0.05798828 10.34501953 -0.05347656 9.25253906 -0.04882812 8.12695312 C-0.03699826 5.41791505 -0.02051543 2.70898401 0 0 Z " fill="#494358" transform="translate(319,291)"/>
<path d="M0 0 C0.33 0 0.66 0 1 0 C0.95697754 1.04865234 0.91395508 2.09730469 0.86962891 3.17773438 C0.72760935 7.09926988 0.67936435 11.01751143 0.65820312 14.94140625 C0.63624688 16.6333285 0.58944514 18.32512898 0.51660156 20.015625 C-0.18610883 29.34564402 -0.18610883 29.34564402 3.36022949 37.55224609 C7.1960428 40.57435118 11.44926428 42.31750298 16 44 C16.97404785 44.39123047 17.9480957 44.78246094 18.95166016 45.18554688 C19.96558838 45.58870117 19.96558838 45.58870117 21 46 C21 46.66 21 47.32 21 48 C22.02867187 48.38091797 22.02867187 48.38091797 23.078125 48.76953125 C25.81828341 49.92347497 28.36245817 51.27929262 30.96142578 52.71728516 C36.38621599 55.65997097 40.93843206 58.03377263 47.23046875 56.66796875 C49.50943911 55.80769517 51.21213094 54.64483954 53 53 C53.66 53 54.32 53 55 53 C55 53.66 55 54.32 55 55 C54.01 55.33 53.02 55.66 52 56 C52 56.99 52 57.98 52 59 C51.34 59.99 50.68 60.98 50 62 C49.01 61.67 48.02 61.34 47 61 C47.66 60.34 48.32 59.68 49 59 C46.69 59.66 44.38 60.32 42 61 C42.37125 61.763125 42.7425 62.52625 43.125 63.3125 C43.558125 64.6428125 43.558125 64.6428125 44 66 C43.34 66.99 42.68 67.98 42 69 C37.25 68.125 37.25 68.125 35 67 C35 66.34 35 65.68 35 65 C34.2673291 64.8868042 33.5346582 64.7736084 32.77978516 64.65698242 C29.90736866 63.97810724 28.02160273 63.03532014 25.5234375 61.48828125 C24.27711548 60.72632446 24.27711548 60.72632446 23.00561523 59.94897461 C22.13751221 59.40893799 21.26940918 58.86890137 20.375 58.3125 C18.58312523 57.21435875 16.7901638 56.11798857 14.99609375 55.0234375 C14.13612793 54.4984668 13.27616211 53.97349609 12.39013672 53.43261719 C8.66668824 51.20083009 4.85764722 49.16688761 0.99609375 47.18359375 C-1.01072869 45.99363837 -2.43793774 44.72176191 -4 43 C-2.02 42.505 -2.02 42.505 0 42 C0 41.34 0 40.68 0 40 C-1.32 39.34 -2.64 38.68 -4 38 C-3.01 37.505 -3.01 37.505 -2 37 C-2 36.34 -2 35.68 -2 35 C-1.34 35 -0.68 35 0 35 C0 23.45 0 11.9 0 0 Z " fill="#F3F3F9" transform="translate(207,172)"/>
<path d="M0 0 C1.25668488 0.03753891 1.25668488 0.03753891 2.53875732 0.07583618 C5.20855249 0.15785682 7.87758796 0.25451499 10.546875 0.3515625 C12.3593442 0.40982044 14.17184437 0.46712333 15.984375 0.5234375 C20.42231012 0.66340881 24.85962064 0.81650756 29.296875 0.9765625 C29.296875 1.3065625 29.296875 1.6365625 29.296875 1.9765625 C17.416875 1.9765625 5.536875 1.9765625 -6.703125 1.9765625 C-6.703125 4.2865625 -6.703125 6.5965625 -6.703125 8.9765625 C-7.033125 8.9765625 -7.363125 8.9765625 -7.703125 8.9765625 C-8.198125 7.4915625 -8.198125 7.4915625 -8.703125 5.9765625 C-11.17136346 9.32057719 -11.17136346 9.32057719 -11.390625 13.2890625 C-11.0503125 14.124375 -11.0503125 14.124375 -10.703125 14.9765625 C-14.06964305 17.22090787 -14.91909488 17.17795152 -18.80859375 16.953125 C-20.28295898 16.87578125 -20.28295898 16.87578125 -21.78710938 16.796875 C-22.81126953 16.73242188 -23.83542969 16.66796875 -24.890625 16.6015625 C-25.92638672 16.54484375 -26.96214844 16.488125 -28.02929688 16.4296875 C-30.58793771 16.28819584 -33.14559984 16.13678384 -35.703125 15.9765625 C-35.703125 18.2865625 -35.703125 20.5965625 -35.703125 22.9765625 C-30.753125 22.9765625 -25.803125 22.9765625 -20.703125 22.9765625 C-20.703125 25.6165625 -20.703125 28.2565625 -20.703125 30.9765625 C-28.293125 30.9765625 -35.883125 30.9765625 -43.703125 30.9765625 C-43.703125 23.7165625 -43.703125 16.4565625 -43.703125 8.9765625 C-33.803125 8.9765625 -23.903125 8.9765625 -13.703125 8.9765625 C-13.373125 6.6665625 -13.043125 4.3565625 -12.703125 1.9765625 C-9.36982362 -1.18203531 -4.30839834 -0.17113473 0 0 Z " fill="#E3E2EB" transform="translate(260.703125,344.0234375)"/>
<path d="M0 0 C7.26 0 14.52 0 22 0 C22 7.26 22 14.52 22 22 C14.74 22 7.48 22 0 22 C0 14.74 0 7.48 0 0 Z " fill="#F0F1F8" transform="translate(174,353)"/>
<path d="M0 0 C7.26 0 14.52 0 22 0 C22 7.26 22 14.52 22 22 C14.74 22 7.48 22 0 22 C0 14.74 0 7.48 0 0 Z " fill="#F2F1F8" transform="translate(239,298)"/>
<path d="M0 0 C0.33 0 0.66 0 1 0 C1.01981934 0.76666992 1.03963867 1.53333984 1.06005859 2.32324219 C1.15535446 5.79917219 1.26501598 9.27450506 1.375 12.75 C1.4059375 13.9565625 1.436875 15.163125 1.46875 16.40625 C1.50742187 17.56640625 1.54609375 18.7265625 1.5859375 19.921875 C1.63306885 21.52434082 1.63306885 21.52434082 1.68115234 23.15917969 C1.99200148 25.92873598 2.57670532 27.63283621 4 30 C1.69 29.34 -0.62 28.68 -3 28 C-3 26.68 -3 25.36 -3 24 C-3.66 24 -4.32 24 -5 24 C-5.33 24.66 -5.66 25.32 -6 26 C-6 25.34 -6 24.68 -6 24 C-10.95 24 -15.9 24 -21 24 C-21 16.74 -21 9.48 -21 2 C-16.05 2 -11.1 2 -6 2 C-5.67 3.32 -5.34 4.64 -5 6 C-2.50965614 7.29660434 -2.50965614 7.29660434 0 8 C0 5.36 0 2.72 0 0 Z " fill="#F1F1F8" transform="translate(296,351)"/>
<path d="M0 0 C2.31 0 4.62 0 7 0 C7 9.57 7 19.14 7 29 C16.57 29 26.14 29 36 29 C36 31.31 36 33.62 36 36 C31.51601216 36.09903473 27.03260708 36.17154483 22.54785156 36.21972656 C21.02299915 36.23981599 19.49822352 36.26709316 17.97363281 36.30175781 C15.77910402 36.35039796 13.58559531 36.37299396 11.390625 36.390625 C9.4111084 36.4220459 9.4111084 36.4220459 7.39160156 36.45410156 C4 36 4 36 1.5625 34.4375 C-0.61050711 31.04760891 -0.45423858 28.61703048 -0.390625 24.609375 C-0.38496521 23.90476135 -0.37930542 23.20014771 -0.37347412 22.47418213 C-0.35115078 20.23208572 -0.30096754 17.99161012 -0.25 15.75 C-0.22992952 14.22658565 -0.2116797 12.70314614 -0.1953125 11.1796875 C-0.15130118 7.4526017 -0.08230372 3.72645913 0 0 Z " fill="#4B455A" transform="translate(124,346)"/>
<path d="M0 0 C1.05692047 0.00848969 1.05692047 0.00848969 2.13519287 0.01715088 C4.37728928 0.03947422 6.61776488 0.08965746 8.859375 0.140625 C10.38278935 0.16069548 11.90622886 0.1789453 13.4296875 0.1953125 C17.1567733 0.23932382 20.88291587 0.30832128 24.609375 0.390625 C24.609375 2.700625 24.609375 5.010625 24.609375 7.390625 C15.039375 7.390625 5.469375 7.390625 -4.390625 7.390625 C-4.390625 9.700625 -4.390625 12.010625 -4.390625 14.390625 C3.529375 14.390625 11.449375 14.390625 19.609375 14.390625 C19.609375 14.720625 19.609375 15.050625 19.609375 15.390625 C13.339375 15.720625 7.069375 16.050625 0.609375 16.390625 C0.609375 17.710625 0.609375 19.030625 0.609375 20.390625 C-1.370625 20.060625 -3.350625 19.730625 -5.390625 19.390625 C-5.390625 20.050625 -5.390625 20.710625 -5.390625 21.390625 C2.199375 21.390625 9.789375 21.390625 17.609375 21.390625 C17.609375 21.720625 17.609375 22.050625 17.609375 22.390625 C13.69295789 22.50681264 9.77698399 22.57787154 5.859375 22.640625 C4.19261719 22.69089844 4.19261719 22.69089844 2.4921875 22.7421875 C1.42226563 22.75507813 0.35234375 22.76796875 -0.75 22.78125 C-2.22678223 22.8126709 -2.22678223 22.8126709 -3.73339844 22.84472656 C-7.12350171 22.26538146 -8.25143492 21.01849357 -10.390625 18.390625 C-11.73346149 15.70495203 -11.63350019 13.51315647 -11.703125 10.515625 C-11.74050781 9.46632813 -11.77789062 8.41703125 -11.81640625 7.3359375 C-10.81320805 0.39638298 -6.21624457 -0.09867055 0 0 Z " fill="#564F64" transform="translate(351.390625,345.609375)"/>
<path d="M0 0 C1.98 0 3.96 0 6 0 C6.04939115 4.09338652 6.08571501 8.18665798 6.10986328 12.28027344 C6.11992877 13.67320781 6.13358234 15.06612102 6.15087891 16.45898438 C6.1751022 18.4595436 6.18540814 20.46025615 6.1953125 22.4609375 C6.20578613 23.66540527 6.21625977 24.86987305 6.22705078 26.11083984 C6 29 6 29 4 31 C5.81327076 33.23442885 5.81327076 33.23442885 8.38256836 33.24291992 C9.35846924 33.23881104 10.33437012 33.23470215 11.33984375 33.23046875 C12.9340918 33.22756836 12.9340918 33.22756836 14.56054688 33.22460938 C15.67494141 33.21236328 16.78933594 33.20011719 17.9375 33.1875 C19.60329102 33.1865332 19.60329102 33.1865332 21.30273438 33.18554688 C27.2473827 33.24050487 27.2473827 33.24050487 33 32 C33 31.34 33 30.68 33 30 C32.01 30.495 32.01 30.495 31 31 C29.45976004 31.06950541 27.91665012 31.08452357 26.375 31.0625 C25.14910156 31.04896484 25.14910156 31.04896484 23.8984375 31.03515625 C23.27195313 31.02355469 22.64546875 31.01195312 22 31 C22 30.67 22 30.34 22 30 C25.96 29.505 25.96 29.505 30 29 C30.33 20.42 30.66 11.84 31 3 C31.66 3.66 32.32 4.32 33 5 C33.66 4.34 34.32 3.68 35 3 C35.1238616 7.05656281 35.21445733 11.11238978 35.2746582 15.17041016 C35.2997593 16.54983702 35.33384873 17.92913142 35.37719727 19.30810547 C35.43802875 21.29335872 35.46357937 23.27959359 35.48828125 25.265625 C35.51446533 26.45961914 35.54064941 27.65361328 35.56762695 28.88378906 C35 32 35 32 32.86254883 34.38769531 C29.53514526 36.26182522 27.5119613 36.51545705 23.7109375 36.53125 C21.92816406 36.53898437 21.92816406 36.53898437 20.109375 36.546875 C18.87703125 36.53140625 17.6446875 36.5159375 16.375 36.5 C15.13492188 36.51546875 13.89484375 36.5309375 12.6171875 36.546875 C11.43125 36.54171875 10.2453125 36.5365625 9.0234375 36.53125 C7.39801025 36.52448242 7.39801025 36.52448242 5.73974609 36.51757812 C3 36 3 36 1.1418457 34.42871094 C-0.44519452 31.05306925 -0.33728828 28.33221516 -0.29296875 24.609375 C-0.28872391 23.90476135 -0.28447906 23.20014771 -0.28010559 22.47418213 C-0.26336538 20.23239288 -0.22572404 17.99151569 -0.1875 15.75 C-0.17244704 14.22657552 -0.1587597 12.70313689 -0.14648438 11.1796875 C-0.11347791 7.45283059 -0.06172854 3.72650437 0 0 Z " fill="#453F54" transform="translate(146,291)"/>
<path d="M0 0 C8.57142857 -0.28571429 8.57142857 -0.28571429 12 2 C12 2.66 12 3.32 12 4 C8.59144141 6.01406709 5.17192267 8.00873701 1.75 10 C0.78191406 10.57234375 -0.18617188 11.1446875 -1.18359375 11.734375 C-2.11816406 12.27578125 -3.05273438 12.8171875 -4.015625 13.375 C-4.87446289 13.87773437 -5.73330078 14.38046875 -6.61816406 14.8984375 C-9 16 -9 16 -13 16 C-12.79375 15.38125 -12.5875 14.7625 -12.375 14.125 C-12.25125 13.42375 -12.1275 12.7225 -12 12 C-12.66 11.34 -13.32 10.68 -14 10 C-11.47211993 7.20127563 -9.79588866 5.54226981 -6 5 C-5.67 5.99 -5.34 6.98 -5 8 C-2.7226499 5.18490007 -2.7226499 5.18490007 -3 2 C-2.01 2 -1.02 2 0 2 C0 1.34 0 0.68 0 0 Z " fill="#F5F5FA" transform="translate(262,225)"/>
<path d="M0 0 C9.24 0 18.48 0 28 0 C28 2.31 28 4.62 28 7 C20.08 7 12.16 7 4 7 C3.67 5.35 3.34 3.7 3 2 C2.01 1.34 1.02 0.68 0 0 Z " fill="#463F54" transform="translate(348,346)"/>
<path d="M0 0 C0 0.66 0 1.32 0 2 C2.99480917 2.8723412 5.63575911 3.10829766 8.75 3.0625 C9.94882813 3.04896484 9.94882813 3.04896484 11.171875 3.03515625 C12.07679688 3.01775391 12.07679688 3.01775391 13 3 C12 5 12 5 10.2578125 5.74609375 C8.84141422 6.20525583 7.42474915 6.66359575 6.0078125 7.12109375 C3.80438673 8.08562838 2.58331246 9.21254978 1 11 C1.99 11.66 2.98 12.32 4 13 C3.01 13.66 2.02 14.32 1 15 C1.33 15.66 1.66 16.32 2 17 C-3.31027254 15.53967505 -7.46330032 13.01679014 -12 10 C-11.01 9.67 -10.02 9.34 -9 9 C-9 8.34 -9 7.68 -9 7 C-7.71182656 5.62298702 -6.37195574 4.29355827 -5 3 C-4.46375 2.4225 -3.9275 1.845 -3.375 1.25 C-2 0 -2 0 0 0 Z " fill="#524B61" transform="translate(242,237)"/>
<path d="M0 0 C0.33 0 0.66 0 1 0 C1.17660156 0.89203125 1.35320312 1.7840625 1.53515625 2.703125 C3.53312949 7.19989677 6.22382022 8.4746922 10.4375 10.75 C11.79046702 11.51544397 13.14333522 12.28106263 14.49609375 13.046875 C15.09607178 13.37526367 15.6960498 13.70365234 16.31420898 14.04199219 C17.92012336 14.9546074 19.46310884 15.97540589 21 17 C19.948125 16.9175 18.89625 16.835 17.8125 16.75 C13.46236331 17.03525487 12.0684847 18.02449969 9 21 C6.36 19.68 3.72 18.36 1 17 C1 16.01 1 15.02 1 14 C0.01 13.34 -0.98 12.68 -2 12 C-1.01 11.34 -0.02 10.68 1 10 C0.67 9.67 0.34 9.34 0 9 C-0.07179964 7.48071962 -0.08392007 5.95832518 -0.0625 4.4375 C-0.05347656 3.61121094 -0.04445312 2.78492188 -0.03515625 1.93359375 C-0.02355469 1.29550781 -0.01195312 0.65742188 0 0 Z " fill="#EEEDF5" transform="translate(211,156)"/>
<path d="M0 0 C6.93 0 13.86 0 21 0 C21 2.31 21 4.62 21 7 C14.07 7 7.14 7 0 7 C0 4.69 0 2.38 0 0 Z " fill="#F6F4FC" transform="translate(196,298)"/>
<path d="M0 0 C0 0.66 0 1.32 0 2 C-0.99 2.33 -1.98 2.66 -3 3 C-3 3.99 -3 4.98 -3 6 C-3.99 7.485 -3.99 7.485 -5 9 C-5.99 8.67 -6.98 8.34 -8 8 C-7.34 7.34 -6.68 6.68 -6 6 C-8.31 6.66 -10.62 7.32 -13 8 C-12.443125 9.1446875 -12.443125 9.1446875 -11.875 10.3125 C-11.58625 11.199375 -11.2975 12.08625 -11 13 C-11.99 14.485 -11.99 14.485 -13 16 C-17.75 15.125 -17.75 15.125 -20 14 C-20 13.34 -20 12.68 -20 12 C-21.65 11.67 -23.3 11.34 -25 11 C-24.01 10.67 -23.02 10.34 -22 10 C-22.33 9.01 -22.66 8.02 -23 7 C-22.5625 4.3125 -22.5625 4.3125 -22 2 C-20.5459375 2.5259375 -20.5459375 2.5259375 -19.0625 3.0625 C-14.60057988 4.33215207 -10.48858494 4.09604981 -6 3 C-1.32 0 -1.32 0 0 0 Z " fill="#EFEEF5" transform="translate(262,225)"/>
<path d="M0 0 C1.65 0 3.3 0 5 0 C5.04947698 3.93265896 5.08575578 7.86519714 5.10986328 11.7980957 C5.12485495 13.79319618 5.15026731 15.78820946 5.17578125 17.78320312 C5.18222656 19.03681641 5.18867188 20.29042969 5.1953125 21.58203125 C5.20578613 22.73936768 5.21625977 23.8967041 5.22705078 25.08911133 C5 28 5 28 3 31 C2.34 31 1.68 31 1 31 C-0.09857724 24.8323971 -0.11539104 18.81584877 -0.0625 12.5625 C-0.05798828 11.54478516 -0.05347656 10.52707031 -0.04882812 9.47851562 C-0.03712437 6.98561491 -0.02072848 4.49283926 0 2 C1.32 1.67 2.64 1.34 4 1 C2.68 0.67 1.36 0.34 0 0 Z " fill="#433F54" transform="translate(125,347)"/>
<path d="M0 0 C7.92 0 15.84 0 24 0 C23.67 1.98 23.34 3.96 23 6 C15.08 6 7.16 6 -1 6 C-0.01 5.67 0.98 5.34 2 5 C2 4.34 2 3.68 2 3 C1.34 3 0.68 3 0 3 C0 2.01 0 1.02 0 0 Z " fill="#443F55" transform="translate(197,306)"/>
<path d="M0 0 C0.66 0 1.32 0 2 0 C2 0.66 2 1.32 2 2 C2.78375 2.28875 3.5675 2.5775 4.375 2.875 C7 4 7 4 9 6 C9.22705078 8.61376953 9.22705078 8.61376953 9.1953125 11.8828125 C9.18886719 13.04941406 9.18242187 14.21601563 9.17578125 15.41796875 C9.15902344 16.64128906 9.14226562 17.86460937 9.125 19.125 C9.11597656 20.35605469 9.10695313 21.58710938 9.09765625 22.85546875 C9.07402548 25.90383815 9.04108054 28.95182382 9 32 C8.67 32 8.34 32 8 32 C7.67 23.75 7.34 15.5 7 7 C6.01 8.485 6.01 8.485 5 10 C3.36504293 11.05104383 1.70116376 12.05988318 0 13 C0 12.34 0 11.68 0 11 C-0.598125 10.731875 -1.19625 10.46375 -1.8125 10.1875 C-3.97224808 9.01506533 -5.35790256 7.80630718 -7 6 C-6.34 5.67 -5.68 5.34 -5 5 C-4.34 5.33 -3.68 5.66 -3 6 C-2.67 5.01 -2.34 4.02 -2 3 C-1.34 3 -0.68 3 0 3 C0 2.01 0 1.02 0 0 Z " fill="#E4E1EA" transform="translate(292,148)"/>
<path d="M0 0 C0.33 0.66 0.66 1.32 1 2 C1.66 2 2.32 2 3 2 C5.10592542 5.15888813 5.23390694 5.8496215 5.125 9.4375 C5.10695312 10.19933594 5.08890625 10.96117187 5.0703125 11.74609375 C5.03550781 12.86177734 5.03550781 12.86177734 5 14 C5 15.32 5 16.64 5 18 C5 21.33333333 5 24.66666667 5 28 C3.35 28 1.7 28 0 28 C0 18.76 0 9.52 0 0 Z " fill="#443D54" transform="translate(190,294)"/>
<path d="M0 0 C0.33 0.99 0.66 1.98 1 3 C-0.65 3.99 -2.3 4.98 -4 6 C-2.04904906 7.2557558 -2.04904906 7.2557558 0 6.4375 C0.66 6.293125 1.32 6.14875 2 6 C2.66 6.66 3.32 7.32 4 8 C1.44429018 9.9329988 -1.08100028 11.6625674 -4 13 C-7 12.375 -7 12.375 -10 11 C-12.66197894 10.53536368 -15.30965039 10.27831203 -18 10 C-13.67630171 6.12358085 -6.04191557 0 0 0 Z " fill="#ECECF3" transform="translate(280,215)"/>
<path d="M0 0 C0.99 0.495 0.99 0.495 2 1 C1.67 6.94 1.34 12.88 1 19 C1.66 19 2.32 19 3 19 C3 18.34 3 17.68 3 17 C6.63 17 10.26 17 14 17 C13.01732141 15.79438816 13.01732141 15.79438816 11.15234375 15.90234375 C9.1015625 15.93489583 7.05078125 15.96744792 5 16 C4.67 14.68 4.34 13.36 4 12 C4.66 12.33 5.32 12.66 6 13 C8.37123246 13.23029956 10.74741943 13.41119942 13.125 13.5625 C14.40632812 13.64628906 15.68765625 13.73007812 17.0078125 13.81640625 C17.99523437 13.87699219 18.98265625 13.93757813 20 14 C20 15.98 20 17.96 20 20 C13.4 20 6.8 20 0 20 C0 13.4 0 6.8 0 0 Z " fill="#F8F7FD" transform="translate(219,354)"/>
<path d="M0 0 C0.33 0 0.66 0 1 0 C0.98316162 1.06436279 0.96632324 2.12872559 0.94897461 3.2253418 C0.89822215 7.18621291 0.90672954 11.1451525 0.93286133 15.10620117 C0.93593777 16.81816199 0.92308265 18.53023025 0.89379883 20.24194336 C0.29786073 29.92918491 0.29786073 29.92918491 4.07470703 38.26025391 C6.3871269 39.54493161 8.42962141 40.40118724 11 41 C10.40058594 41.11988281 9.80117187 41.23976562 9.18359375 41.36328125 C6.7180302 41.94446065 6.7180302 41.94446065 4.0625 44.1875 C3.051875 44.785625 2.04125 45.38375 1 46 C-1.875 45.25 -1.875 45.25 -4 44 C-3.67 43.34 -3.34 42.68 -3 42 C-2.01 42 -1.02 42 0 42 C0 41.34 0 40.68 0 40 C-1.32 39.34 -2.64 38.68 -4 38 C-3.01 37.505 -3.01 37.505 -2 37 C-2 36.34 -2 35.68 -2 35 C-1.34 35 -0.68 35 0 35 C0 23.45 0 11.9 0 0 Z " fill="#E5E4EC" transform="translate(207,172)"/>
<path d="M0 0 C0.66 0.33 1.32 0.66 2 1 C0.35 2.65 -1.3 4.3 -3 6 C-2.34 7.65 -1.68 9.3 -1 11 C-2.0725 11.0825 -3.145 11.165 -4.25 11.25 C-8.2738451 12.05476902 -9.48169253 12.87729874 -12 16 C-12.639375 15.67 -13.27875 15.34 -13.9375 15 C-15.76794567 13.92728775 -15.76794567 13.92728775 -17 14 C-18.33568021 13.67619874 -19.66923011 13.34342449 -21 13 C-18.4378513 11.39526997 -15.87529445 9.79119818 -13.3125 8.1875 C-12.59126953 7.73568359 -11.87003906 7.28386719 -11.12695312 6.81835938 C-9.72133997 5.93904886 -8.31399633 5.06249743 -6.90478516 4.18896484 C-5.2929273 3.18284491 -3.69726527 2.15084902 -2.10546875 1.11328125 C-1.41066406 0.74589844 -0.71585937 0.37851563 0 0 Z " fill="#514B5F" transform="translate(297,214)"/>
<path d="M0 0 C0.99 0.99 1.98 1.98 3 3 C-0.5463765 8.74175243 -6.16401445 11.07194518 -12 14 C-15.07692308 9.56923077 -15.07692308 9.56923077 -14.6875 6.6875 C-14.460625 6.130625 -14.23375 5.57375 -14 5 C-12.98679688 4.83564453 -12.98679688 4.83564453 -11.953125 4.66796875 C-10.61507812 4.43013672 -10.61507812 4.43013672 -9.25 4.1875 C-8.36828125 4.03667969 -7.4865625 3.88585937 -6.578125 3.73046875 C-3.8089089 2.94585752 -2.1740599 1.85404641 0 0 Z " fill="#F5F5FB" transform="translate(243,131)"/>
<path d="M0 0 C-0.33 1.32 -0.66 2.64 -1 4 C-2.32 4 -3.64 4 -5 4 C-4.01 5.485 -4.01 5.485 -3 7 C-2.875 9.6875 -2.875 9.6875 -3 12 C-2.21625 11.814375 -1.4325 11.62875 -0.625 11.4375 C2 11 2 11 4 12 C4 12.99 4 13.98 4 15 C-1.02693031 15.41276847 -3.37850901 14.52437156 -7.375 11.5 C-8.68597656 10.52546875 -8.68597656 10.52546875 -10.0234375 9.53125 C-11.00183594 8.77328125 -11.00183594 8.77328125 -12 8 C-11.6213092 5.59657572 -11.39919886 4.3394762 -9.51171875 2.734375 C-8.60873047 2.24710938 -8.60873047 2.24710938 -7.6875 1.75 C-7.09324219 1.41484375 -6.49898437 1.0796875 -5.88671875 0.734375 C-4 0 -4 0 0 0 Z " fill="#F2F2F8" transform="translate(248,152)"/>
<path d="M0 0 C0.33 0 0.66 0 1 0 C1 2.31 1 4.62 1 7 C7.93 7 14.86 7 22 7 C22 4.69 22 2.38 22 0 C22.33 0 22.66 0 23 0 C23 2.64 23 5.28 23 8 C16.07 8 9.14 8 2 8 C2 8.99 2 9.98 2 11 C2.66 11 3.32 11 4 11 C4 11.66 4 12.32 4 13 C10.6 13.33 17.2 13.66 24 14 C24 14.33 24 14.66 24 15 C16.41 15 8.82 15 1 15 C1 19.62 1 24.24 1 29 C0.67 29 0.34 29 0 29 C-0.16831775 26.58343806 -0.33471262 24.16676951 -0.5 21.75 C-0.54769531 21.06808594 -0.59539062 20.38617188 -0.64453125 19.68359375 C-0.98783836 14.63207486 -1.02988162 9.78387541 -0.5 4.75 C-0.4071875 3.85796875 -0.314375 2.9659375 -0.21875 2.046875 C-0.1465625 1.37140625 -0.074375 0.6959375 0 0 Z " fill="#757183" transform="translate(195,298)"/>
<path d="M0 0 C1.98 0 3.96 0 6 0 C6 5.61 6 11.22 6 17 C5.67 16.01 5.34 15.02 5 14 C4.01 13.67 3.02 13.34 2 13 C1.34 13.99 0.68 14.98 0 16 C0 10.72 0 5.44 0 0 Z " fill="#433E52" transform="translate(319,292)"/>
<path d="M0 0 C0.66 0.33 1.32 0.66 2 1 C1.59007812 1.47050781 1.18015625 1.94101562 0.7578125 2.42578125 C0.21898437 3.04839844 -0.31984375 3.67101562 -0.875 4.3125 C-1.40867187 4.92738281 -1.94234375 5.54226563 -2.4921875 6.17578125 C-4.1640447 8.13498212 -4.1640447 8.13498212 -6 11 C-4.68 11.33 -3.36 11.66 -2 12 C-8.92988052 11.85562749 -12.19760593 8.77744657 -17 4 C-16.34 3.67 -15.68 3.34 -15 3 C-14.67 2.34 -14.34 1.68 -14 1 C-12.8553125 1.495 -12.8553125 1.495 -11.6875 2 C-8.1445874 3.31829306 -5.5395056 3.141776 -2 2 C-1.34 1.34 -0.68 0.68 0 0 Z " fill="#554F64" transform="translate(341,315)"/>
<path d="M0 0 C7.59 0 15.18 0 23 0 C20.04755185 2.95244815 18.89639715 3.91438314 15 5 C12.17080816 4.983374 9.49239709 4.87566104 6.6875 4.625 C5.94693359 4.56828125 5.20636719 4.5115625 4.44335938 4.453125 C2.62806257 4.31258589 0.81388403 4.15772905 -1 4 C-0.67 2.68 -0.34 1.36 0 0 Z " fill="#494359" transform="translate(177,346)"/>
<path d="M0 0 C0.66 0 1.32 0 2 0 C2 0.66 2 1.32 2 2 C2.66 1.67 3.32 1.34 4 1 C6.88370333 0.92805131 9.74239664 0.90708292 12.625 0.9375 C13.42679687 0.94201172 14.22859375 0.94652344 15.0546875 0.95117188 C17.03649006 0.96296832 19.01825433 0.98090395 21 1 C21 1.33 21 1.66 21 2 C23.97 2.495 23.97 2.495 27 3 C27 3.33 27 3.66 27 4 C26.3294458 3.98428955 25.6588916 3.9685791 24.96801758 3.95239258 C21.9162649 3.88985342 18.86464732 3.85094937 15.8125 3.8125 C14.75740234 3.78736328 13.70230469 3.76222656 12.61523438 3.73632812 C11.59365234 3.72666016 10.57207031 3.71699219 9.51953125 3.70703125 C8.58214111 3.6913208 7.64475098 3.67561035 6.67895508 3.65942383 C3.50673189 4.06270929 1.61264246 5.20367882 -1 7 C-1 6.01 -1 5.02 -1 4 C-1.99 4.495 -1.99 4.495 -3 5 C-1.125 1.125 -1.125 1.125 0 0 Z " fill="#4E495F" transform="translate(300,346)"/>
<path d="M0 0 C0.33 0.66 0.66 1.32 1 2 C0.67 2.66 0.34 3.32 0 4 C-0.66 4 -1.32 4 -2 4 C-2 4.66 -2 5.32 -2 6 C-1.34 6.33 -0.68 6.66 0 7 C0 7.66 0 8.32 0 9 C-0.99 9 -1.98 9 -3 9 C-3 8.01 -3 7.02 -3 6 C-6.24849977 7.72226496 -6.24849977 7.72226496 -7 11 C-7.66 11 -8.32 11 -9 11 C-9.33 11.66 -9.66 12.32 -10 13 C-11.65 12.67 -13.3 12.34 -15 12 C-14.94140625 10.265625 -14.94140625 10.265625 -14 8 C-11.65272887 6.4100067 -9.42866153 5.06498263 -6.9375 3.75 C-6.27427734 3.38648438 -5.61105469 3.02296875 -4.92773438 2.6484375 C-3.29154895 1.75383252 -1.64657276 0.87533933 0 0 Z M-11 13 C-10.67 13.66 -10.34 14.32 -10 15 C-10.66 14.67 -11.32 14.34 -12 14 C-11.67 13.67 -11.34 13.34 -11 13 Z " fill="#EDEBF4" transform="translate(214,144)"/>
<path d="M0 0 C0.66 0.33 1.32 0.66 2 1 C3.37342831 1.0689472 4.75002102 1.08467708 6.125 1.0625 C7.40375 1.041875 8.6825 1.02125 10 1 C10 2.65 10 4.3 10 6 C7.03 5.505 7.03 5.505 4 5 C4 5.66 4 6.32 4 7 C11.59 7 19.18 7 27 7 C27 7.33 27 7.66 27 8 C23.08358289 8.11618764 19.16760899 8.18724654 15.25 8.25 C13.58324219 8.30027344 13.58324219 8.30027344 11.8828125 8.3515625 C10.81289063 8.36445313 9.74296875 8.37734375 8.640625 8.390625 C7.16384277 8.4220459 7.16384277 8.4220459 5.65722656 8.45410156 C2.26660281 7.87466751 1.07432618 6.69004478 -1 4 C-0.75 1.75 -0.75 1.75 0 0 Z " fill="#656074" transform="translate(342,360)"/>
<path d="M0 0 C4 4 4 4 4.45410156 6.29003906 C4.4331543 7.10698242 4.41220703 7.92392578 4.390625 8.765625 C4.37773437 9.65507812 4.36484375 10.54453125 4.3515625 11.4609375 C4.31804687 12.38132812 4.28453125 13.30171875 4.25 14.25 C4.23195312 15.18585938 4.21390625 16.12171875 4.1953125 17.0859375 C4.14825673 19.39167015 4.08253713 21.69530945 4 24 C2.66666667 24 1.33333333 24 0 24 C0 16.08 0 8.16 0 0 Z " fill="#433B53" transform="translate(213,352)"/>
<path d="M0 0 C1.32 0.33 2.64 0.66 4 1 C4 1.66 4 2.32 4 3 C5.32 3.66 6.64 4.32 8 5 C7.34 5.66 6.68 6.32 6 7 C4.97695052 8.65261839 3.97383946 10.31791365 3 12 C-0.0831351 10.80100302 -3.06279492 9.52299523 -6 8 C-6 7.34 -6 6.68 -6 6 C-3.92446352 5.4465236 -2.15634036 5 0 5 C0 3.35 0 1.7 0 0 Z " fill="#ECECF2" transform="translate(224,217)"/>
<path d="M0 0 C0.33 0 0.66 0 1 0 C1.226875 0.9075 1.45375 1.815 1.6875 2.75 C3.18127977 6.44888324 4.75400577 7.77905658 8 10 C7.505 10.5775 7.01 11.155 6.5 11.75 C4.63019987 14.10400629 4.63019987 14.10400629 5 18 C3.68 17.34 2.36 16.68 1 16 C1 15.34 1 14.68 1 14 C0.01 13.34 -0.98 12.68 -2 12 C-1.01 11.34 -0.02 10.68 1 10 C0.67 9.67 0.34 9.34 0 9 C-0.07179964 7.48071962 -0.08392007 5.95832518 -0.0625 4.4375 C-0.05347656 3.61121094 -0.04445312 2.78492188 -0.03515625 1.93359375 C-0.02355469 1.29550781 -0.01195312 0.65742188 0 0 Z " fill="#E8E8F0" transform="translate(211,156)"/>
<path d="M0 0 C0.66 0 1.32 0 2 0 C5.12940055 3.97193147 5.29162929 7.04230204 5 12 C3.02 12.33 1.04 12.66 -1 13 C-1.02686553 11.02090602 -1.04633375 9.04171029 -1.0625 7.0625 C-1.07410156 5.96035156 -1.08570313 4.85820312 -1.09765625 3.72265625 C-1 1 -1 1 0 0 Z " fill="#4B4459" transform="translate(341,349)"/>
<path d="M0 0 C2.5625718 -0.02710123 5.12485365 -0.04688771 7.6875 -0.0625 C8.40873047 -0.07087891 9.12996094 -0.07925781 9.87304688 -0.08789062 C13.71555382 -0.10543632 17.26639526 0.06475779 21 1 C21 1.66 21 2.32 21 3 C13.08 3 5.16 3 -3 3 C-2.01 2.67 -1.02 2.34 0 2 C0 1.34 0 0.68 0 0 Z " fill="#453F53" transform="translate(224,350)"/>
<path d="M0 0 C2.31 0 4.62 0 7 0 C7 7.26 7 14.52 7 22 C6.67 22 6.34 22 6 22 C6 15.73 6 9.46 6 3 C5.01 3 4.02 3 3 3 C1.46733418 6.06533164 1.89723529 9.26754272 1.9375 12.625 C1.94201172 13.33140625 1.94652344 14.0378125 1.95117188 14.765625 C1.96296125 16.51045275 1.98089676 18.255237 2 20 C1.34 20 0.68 20 0 20 C0 13.4 0 6.8 0 0 Z " fill="#565263" transform="translate(348,291)"/>
<path d="M0 0 C1.98 0 3.96 0 6 0 C7.4783226 2.95664519 7.06032783 5.74229737 7 9 C6.67 9 6.34 9 6 9 C6 7.35 6 5.7 6 4 C2.7 6.31 -0.6 8.62 -4 11 C-4.33 10.01 -4.66 9.02 -5 8 C-3.71937515 6.2925002 -2.38232443 4.62626404 -1 3 C-0.67 2.01 -0.34 1.02 0 0 Z " fill="#E5E4EC" transform="translate(247,373)"/>
<path d="M0 0 C0.56589844 0.37511719 1.13179687 0.75023437 1.71484375 1.13671875 C1.15234375 3.01171875 1.15234375 3.01171875 -0.28515625 5.13671875 C-5.0311464 6.99789136 -9.21981958 7.34346719 -14.28515625 7.13671875 C-12.03241914 4.69685332 -9.71165935 3.00011938 -6.84765625 1.32421875 C-5.70490234 0.63392578 -5.70490234 0.63392578 -4.5390625 -0.0703125 C-2.28515625 -0.86328125 -2.28515625 -0.86328125 0 0 Z " fill="#EDEEF4" transform="translate(243.28515625,128.86328125)"/>
<path d="M0 0 C3.125 0.375 3.125 0.375 6 1 C6 3.97 6 6.94 6 10 C6.66 10.33 7.32 10.66 8 11 C6.35 10.67 4.7 10.34 3 10 C2.67 8.68 2.34 7.36 2 6 C0.68 5.67 -0.64 5.34 -2 5 C-2 2 -2 2 0 0 Z " fill="#F6F6FB" transform="translate(234,225)"/>
<path d="M0 0 C0.33 0 0.66 0 1 0 C1.02505615 0.68626465 1.0501123 1.3725293 1.07592773 2.07958984 C1.19171427 5.17825817 1.31451885 8.27660923 1.4375 11.375 C1.47681641 12.45523437 1.51613281 13.53546875 1.55664062 14.6484375 C1.59853516 15.6796875 1.64042969 16.7109375 1.68359375 17.7734375 C1.72025146 18.72653809 1.75690918 19.67963867 1.79467773 20.66162109 C1.85763465 23.02132349 1.85763465 23.02132349 3 25 C1.02 25.66 -0.96 26.32 -3 27 C-3.6875 25.25 -3.6875 25.25 -4 23 C-3.525625 22.4946875 -3.05125 21.989375 -2.5625 21.46875 C-0.13349664 17.63092468 -0.42768724 13.70610059 -0.3125 9.25 C-0.27833984 8.36183594 -0.24417969 7.47367187 -0.20898438 6.55859375 C-0.12671286 4.37252197 -0.05749828 2.18684049 0 0 Z " fill="#CFCED8" transform="translate(318,291)"/>
<path d="M0 0 C1.32 0.66 2.64 1.32 4 2 C3.67 3.98 3.34 5.96 3 8 C2.401875 7.814375 1.80375 7.62875 1.1875 7.4375 C-1.16408762 6.77906313 -1.16408762 6.77906313 -4 8 C-4.99 6.68 -5.98 5.36 -7 4 C-4.69 3.34 -2.38 2.68 0 2 C0 1.34 0 0.68 0 0 Z " fill="#F4F6FB" transform="translate(221,216)"/>
<path d="M0 0 C-1.24674659 2.49349318 -2.69960106 3.46640071 -5 5 C-5.66 5 -6.32 5 -7 5 C-7 13.58 -7 22.16 -7 31 C-7.33 31 -7.66 31 -8 31 C-8.11608127 26.58355402 -8.1872132 22.16749983 -8.25 17.75 C-8.28351563 16.49574219 -8.31703125 15.24148438 -8.3515625 13.94921875 C-8.36445313 12.74394531 -8.37734375 11.53867187 -8.390625 10.296875 C-8.41157227 9.18666992 -8.43251953 8.07646484 -8.45410156 6.93261719 C-8 4 -8 4 -6.22558594 1.60644531 C-4 0 -4 0 0 0 Z " fill="#585465" transform="translate(175,346)"/>
<path d="M0 0 C1.42944945 2.35438733 2.08661261 3.48032433 1.625 6.25 C1.41875 6.8275 1.2125 7.405 1 8 C-3 8 -3 8 -5.25 6.125 C-7 4 -7 4 -7 2 C-2.25 0 -2.25 0 0 0 Z " fill="#F6F6FC" transform="translate(267,134)"/>
<path d="M0 0 C3.68754757 0.49831724 5.60490662 1.10067643 8 4 C6 6 6 6 4 7 C3.67 7.99 3.34 8.98 3 10 C2.34 10 1.68 10 1 10 C1 10.66 1 11.32 1 12 C-0.32 11.67 -1.64 11.34 -3 11 C-2.34 10.34 -1.68 9.68 -1 9 C-0.34 8.01 0.32 7.02 1 6 C1.66 6 2.32 6 3 6 C2.67 5.34 2.34 4.68 2 4 C1.33333333 2.66666667 0.66666667 1.33333333 0 0 Z " fill="#443F54" transform="translate(232,234)"/>
<path d="M0 0 C0.66 0 1.32 0 2 0 C2 0.99 2 1.98 2 3 C3.32 3.66 4.64 4.32 6 5 C1.25 9.875 1.25 9.875 -1 11 C-1.33 10.01 -1.66 9.02 -2 8 C-1.34 7.01 -0.68 6.02 0 5 C-0.66 4.67 -1.32 4.34 -2 4 C-1.34 2.68 -0.68 1.36 0 0 Z " fill="#524A5F" transform="translate(346,311)"/>
<path d="M0 0 C0.33 0.99 0.66 1.98 1 3 C0.175 3.433125 -0.65 3.86625 -1.5 4.3125 C-2.325 4.869375 -3.15 5.42625 -4 6 C-4 6.99 -4 7.98 -4 9 C-4.66 9 -5.32 9 -6 9 C-6 8.34 -6 7.68 -6 7 C-7.65 6.67 -9.3 6.34 -11 6 C-8.24029211 2.78034079 -4.3526723 0 0 0 Z " fill="#E2E1EA" transform="translate(280,215)"/>
<path d="M0 0 C0.33 0 0.66 0 1 0 C1.01981934 0.76666992 1.03963867 1.53333984 1.06005859 2.32324219 C1.15535446 5.79917219 1.26501598 9.27450506 1.375 12.75 C1.4059375 13.9565625 1.436875 15.163125 1.46875 16.40625 C1.50742187 17.56640625 1.54609375 18.7265625 1.5859375 19.921875 C1.6173584 20.99018555 1.6487793 22.05849609 1.68115234 23.15917969 C1.99200148 25.92873598 2.57670532 27.63283621 4 30 C1.69 29.34 -0.62 28.68 -3 28 C-2.01 27.67 -1.02 27.34 0 27 C0 18.09 0 9.18 0 0 Z " fill="#DAD8E4" transform="translate(296,351)"/>
<path d="M0 0 C0.33 0.66 0.66 1.32 1 2 C4.63 2 8.26 2 12 2 C12.33 2.66 12.66 3.32 13 4 C11.700625 3.95875 10.40125 3.9175 9.0625 3.875 C4.16408698 3.85944948 -0.28176811 4.7507282 -5 6 C-5 5.01 -5 4.02 -5 3 C-2.5 1.3125 -2.5 1.3125 0 0 Z " fill="#544E63" transform="translate(242,148)"/>
<path d="M0 0 C0 0.66 0 1.32 0 2 C-0.99 2.33 -1.98 2.66 -3 3 C-3 3.99 -3 4.98 -3 6 C-3.99 7.485 -3.99 7.485 -5 9 C-5.99 8.67 -6.98 8.34 -8 8 C-7.34 7.34 -6.68 6.68 -6 6 C-9.3 6 -12.6 6 -16 6 C-16.33 5.34 -16.66 4.68 -17 4 C-15.824375 4.0825 -14.64875 4.165 -13.4375 4.25 C-8.09067467 4.2879881 -4.78519632 0 0 0 Z " fill="#CAC9D3" transform="translate(262,225)"/>
<path d="M0 0 C1.45792884 -0.05399736 2.91642712 -0.09279177 4.375 -0.125 C5.18710938 -0.14820313 5.99921875 -0.17140625 6.8359375 -0.1953125 C9 0 9 0 11 2 C11 2.99 11 3.98 11 5 C11.33 5.66 11.66 6.32 12 7 C7.69235185 5.43358249 3.93828536 3.31663844 0 1 C0 0.67 0 0.34 0 0 Z " fill="#565262" transform="translate(228,219)"/>
<path d="M0 0 C1.32 0.33 2.64 0.66 4 1 C4.33 2.98 4.66 4.96 5 7 C2 9 2 9 -1 9 C-1.625 6.125 -1.625 6.125 -2 3 C-1.34 2.34 -0.68 1.68 0 1 C0 0.67 0 0.34 0 0 Z " fill="#F7F6FC" transform="translate(217,166)"/>
<path d="M0 0 C0.33 0.66 0.66 1.32 1 2 C0.67 2.66 0.34 3.32 0 4 C-0.66 4 -1.32 4 -2 4 C-2 4.66 -2 5.32 -2 6 C-1.34 6.33 -0.68 6.66 0 7 C0 7.66 0 8.32 0 9 C-0.99 9 -1.98 9 -3 9 C-3 8.01 -3 7.02 -3 6 C-4.98 6 -6.96 6 -9 6 C-6.45543849 3.03134491 -3.51005335 1.6380249 0 0 Z " fill="#E3E3EA" transform="translate(214,144)"/>
<path d="M0 0 C2.6875 1.8125 2.6875 1.8125 5 4 C5 4.66 5 5.32 5 6 C3.02 6.33 1.04 6.66 -1 7 C-3 4 -3 4 -3 1 C-2.01 0.67 -1.02 0.34 0 0 Z " fill="#EFEEF5" transform="translate(202,208)"/>
<path d="M0 0 C6.4 -0.49230769 6.4 -0.49230769 9.4375 2 C10.2109375 2.99 10.2109375 2.99 11 4 C10.67 4.66 10.34 5.32 10 6 C6.40992874 4.66654496 3.20429093 3.1056769 0 1 C0 0.67 0 0.34 0 0 Z " fill="#5C576C" transform="translate(211,209)"/>
<path d="M0 0 C1.65 0 3.3 0 5 0 C5 0.66 5 1.32 5 2 C5.78375 1.814375 6.5675 1.62875 7.375 1.4375 C10 1 10 1 12 2 C12 2.99 12 3.98 12 5 C6.72209903 5.50265724 4.13774748 4.25108731 0 1 C0 0.67 0 0.34 0 0 Z " fill="#E2DFE9" transform="translate(240,162)"/>
<path d="M0 0 C0.33 0 0.66 0 1 0 C1.76681614 9.73004484 1.76681614 9.73004484 -0.11328125 12.84375 C-1.5 14.1875 -1.5 14.1875 -4 16 C-4.33 15.01 -4.66 14.02 -5 13 C-4.34 12.01 -3.68 11.02 -3 10 C-2.34 10 -1.68 10 -1 10 C-0.67 6.7 -0.34 3.4 0 0 Z " fill="#585467" transform="translate(224,296)"/>
<path d="M0 0 C1.65 0 3.3 0 5 0 C5 1.32 5 2.64 5 4 C3.125 5.0625 3.125 5.0625 1 6 C0.34 5.67 -0.32 5.34 -1 5 C-0.67 3.35 -0.34 1.7 0 0 Z " fill="#F4F4FA" transform="translate(223,143)"/>
<path d="M0 0 C2.64 1.32 5.28 2.64 8 4 C8 4.99 8 5.98 8 7 C7.01 7.33 6.02 7.66 5 8 C5 7.34 5 6.68 5 6 C4.401875 5.71125 3.80375 5.4225 3.1875 5.125 C1 4 1 4 -2 2 C-1.34 1.34 -0.68 0.68 0 0 Z " fill="#4F495E" transform="translate(202,215)"/>
<path d="M0 0 C1.32 0 2.64 0 4 0 C4.33 0.99 4.66 1.98 5 3 C-0.17578125 6.22265625 -0.17578125 6.22265625 -2 7 C-2.99 6.67 -3.98 6.34 -5 6 C-4.175 5.38125 -3.35 4.7625 -2.5 4.125 C-1.2625 3.073125 -1.2625 3.073125 0 2 C0 1.34 0 0.68 0 0 Z " fill="#F8F7FD" transform="translate(280,215)"/>
<path d="M0 0 C6.0546875 -0.1953125 6.0546875 -0.1953125 8 0 C8.66 0.66 9.32 1.32 10 2 C9.67 2.99 9.34 3.98 9 5 C8.67 4.67 8.34 4.34 8 4 C6.00041636 3.95919217 3.99954746 3.95745644 2 4 C1.34 2.68 0.68 1.36 0 0 Z M1 4 C1.66 4.66 2.32 5.32 3 6 C2.34 6 1.68 6 1 6 C1 5.34 1 4.68 1 4 Z " fill="#403B4E" transform="translate(192,347)"/>
<path d="M0 0 C-0.33 1.32 -0.66 2.64 -1 4 C-4.3 4.33 -7.6 4.66 -11 5 C-7.1149899 1.1149899 -5.51424489 0 0 0 Z " fill="#DEDDE5" transform="translate(248,152)"/>
<path d="M0 0 C0.66 0.33 1.32 0.66 2 1 C0.9375 3.5 0.9375 3.5 -1 6 C-4.6875 6.3125 -4.6875 6.3125 -8 6 C-5.63404067 3.38499232 -3.13950774 1.61000397 0 0 Z " fill="#595568" transform="translate(267,206)"/>
<path d="M0 0 C0.66 0.33 1.32 0.66 2 1 C0.9375 3.5 0.9375 3.5 -1 6 C-4.6875 6.3125 -4.6875 6.3125 -8 6 C-5.63404067 3.38499232 -3.13950774 1.61000397 0 0 Z " fill="#5A5669" transform="translate(235,142)"/>
<path d="M0 0 C0.33 0 0.66 0 1 0 C1 2.31 1 4.62 1 7 C0.34 7 -0.32 7 -1 7 C-1 6.34 -1 5.68 -1 5 C-2.65 5.33 -4.3 5.66 -6 6 C-6 4.68 -6 3.36 -6 2 C-4.02 2 -2.04 2 0 2 C0 1.34 0 0.68 0 0 Z " fill="#5E5A6C" transform="translate(246,346)"/>
<path d="M0 0 C0 2.97 0 5.94 0 9 C-0.33 9 -0.66 9 -1 9 C-1.33 7.35 -1.66 5.7 -2 4 C-3.65 4.33 -5.3 4.66 -7 5 C-6 2 -6 2 -4.0625 0.8125 C-2 0 -2 0 0 0 Z " fill="#E1DFE6" transform="translate(254,344)"/>
<path d="M0 0 C5.66153846 1.47692308 5.66153846 1.47692308 7.375 4.125 C7.684375 5.053125 7.684375 5.053125 8 6 C6.68 5.34 5.36 4.68 4 4 C3.67 4.66 3.34 5.32 3 6 C0 2.25 0 2.25 0 0 Z M-1 3 C-0.34 3 0.32 3 1 3 C1 3.66 1 4.32 1 5 C0.34 5 -0.32 5 -1 5 C-1 4.34 -1 3.68 -1 3 Z " fill="#403A4D" transform="translate(325,313)"/>
<path d="M0 0 C0 0.66 0 1.32 0 2 C-0.99 2 -1.98 2 -3 2 C-3 2.99 -3 3.98 -3 5 C-6.13498292 6.85776765 -8.37471432 7.20140476 -12 7 C-2.9 0 -2.9 0 0 0 Z " fill="#D3D1DC" transform="translate(294,232)"/>
<path d="M0 0 C3.85645121 -0.22036864 6.49223216 0.39644899 10 2 C10 3.32 10 4.64 10 6 C6.40992874 4.66654496 3.20429093 3.1056769 0 1 C0 0.67 0 0.34 0 0 Z " fill="#DBD8E3" transform="translate(227,229)"/>
<path d="M0 0 C3.60296594 -0.41176754 4.78402067 -0.1535853 7.8125 2 C8.534375 2.66 9.25625 3.32 10 4 C7.69 4.33 5.38 4.66 3 5 C3 4.01 3 3.02 3 2 C2.01 1.34 1.02 0.68 0 0 Z " fill="#4F4B5F" transform="translate(276,152)"/>
<path d="M0 0 C0.33 0.99 0.66 1.98 1 3 C3.97 3.495 3.97 3.495 7 4 C6.67 4.66 6.34 5.32 6 6 C3.69 5.67 1.38 5.34 -1 5 C-1.33 4.01 -1.66 3.02 -2 2 C-1.34 2 -0.68 2 0 2 C0 1.34 0 0.68 0 0 Z " fill="#E3E1EA" transform="translate(246,210)"/>
<path d="M0 0 C2 1 2 1 4 5 C1.03 4.67 -1.94 4.34 -5 4 C-3.35 2.68 -1.7 1.36 0 0 Z M-3 5 C-1 6 -1 6 -1 6 Z " fill="#585368" transform="translate(274,202)"/>
<path d="M0 0 C-1.13031152 3.39093457 -1.53808707 3.53808707 -4 6 C-7.625 6.125 -7.625 6.125 -11 6 C-10.01 5.34 -9.02 4.68 -8 4 C-6.989375 3.29875 -5.97875 2.5975 -4.9375 1.875 C-2 0 -2 0 0 0 Z " fill="#DDDCE4" transform="translate(312,176)"/>
<path d="M0 0 C3 1.8125 3 1.8125 6 4 C6 4.99 6 5.98 6 7 C5.01 7 4.02 7 3 7 C3 6.34 3 5.68 3 5 C2.01 5.33 1.02 5.66 0 6 C0 4.02 0 2.04 0 0 Z " fill="#E9E8EF" transform="translate(208,376)"/>
<path d="M0 0 C3.465 1.485 3.465 1.485 7 3 C6.67 3.99 6.34 4.98 6 6 C3.97954558 5.39816251 1.97888961 4.72693904 0 4 C-0.33 3.34 -0.66 2.68 -1 2 C-0.67 1.34 -0.34 0.68 0 0 Z " fill="#625C6F" transform="translate(214,234)"/>
<path d="M0 0 C0.66 0.33 1.32 0.66 2 1 C1.34 2.32 0.68 3.64 0 5 C-2.31 5 -4.62 5 -7 5 C-4.88437775 2.67281553 -2.94982021 1.14186589 0 0 Z " fill="#D8D8E0" transform="translate(236,131)"/>
<path d="M0 0 C0.66 0.33 1.32 0.66 2 1 C-0.21934164 4.32901247 -1.34683329 4.75023244 -5 6 C-5.66 5.34 -6.32 4.68 -7 4 C-1.7265625 0.77734375 -1.7265625 0.77734375 0 0 Z " fill="#D6D2DC" transform="translate(260,251)"/>
<path d="M0 0 C1.98 0.66 3.96 1.32 6 2 C3.61426621 3.89213369 1.92824652 5.02391783 -1 6 C-1 3 -1 3 0 0 Z " fill="#EDEDF4" transform="translate(258,232)"/>
<path d="M0 0 C0.33 0.66 0.66 1.32 1 2 C-1.1875 4.5625 -1.1875 4.5625 -4 7 C-6.8125 6.8125 -6.8125 6.8125 -9 6 C-5.25 3 -5.25 3 -3 3 C-3 2.34 -3 1.68 -3 1 C-2.01 0.67 -1.02 0.34 0 0 Z " fill="#DFDDE7" transform="translate(275,168)"/>
<path d="M0 0 C0.99 0.33 1.98 0.66 3 1 C2.64950425 4.24208567 2.43778819 5.61527704 -0.0625 7.8125 C-0.701875 8.204375 -1.34125 8.59625 -2 9 C-2.66 8.67 -3.32 8.34 -4 8 C-3.2884375 7.13375 -3.2884375 7.13375 -2.5625 6.25 C-1.0515133 4.07417916 -0.45963849 2.57397552 0 0 Z " fill="#F9FAFD" transform="translate(219,142)"/>
<path d="M0 0 C2.375 0.25 2.375 0.25 5 1 C6.3125 3.0625 6.3125 3.0625 7 5 C5.68 5 4.36 5 3 5 C1.25 2.5 1.25 2.5 0 0 Z " fill="#504C5C" transform="translate(369,361)"/>
<path d="M0 0 C0.66 0.33 1.32 0.66 2 1 C1.67 1.66 1.34 2.32 1 3 C2.65 3.33 4.3 3.66 6 4 C3.00468461 4.99843846 1.82744268 5.00732761 -1.1875 4.5625 C-2.445625 4.376875 -3.70375 4.19125 -5 4 C-3.35 2.68 -1.7 1.36 0 0 Z " fill="#E3E3EA" transform="translate(267,221)"/>
<path d="M0 0 C0.33 0.66 0.66 1.32 1 2 C1.66 2 2.32 2 3 2 C3.33 2.99 3.66 3.98 4 5 C1.69 4.67 -0.62 4.34 -3 4 C-2.67 3.01 -2.34 2.02 -2 1 C-1.34 0.67 -0.68 0.34 0 0 Z " fill="#F7F7FB" transform="translate(271,220)"/>
<path d="M0 0 C1.32 0.33 2.64 0.66 4 1 C4 1.66 4 2.32 4 3 C5.32 3.66 6.64 4.32 8 5 C6.1875 5.625 6.1875 5.625 4 6 C1 4 1 4 0.3125 1.875 C0.209375 1.25625 0.10625 0.6375 0 0 Z " fill="#DBDAE3" transform="translate(224,217)"/>
<path d="M0 0 C0.99 0.33 1.98 0.66 3 1 C2 4 2 4 0 5 C0.33 5.66 0.66 6.32 1 7 C-1.475 6.01 -1.475 6.01 -4 5 C-3.34 4.67 -2.68 4.34 -2 4 C-2 3.34 -2 2.68 -2 2 C-1.34 2 -0.68 2 0 2 C0 1.34 0 0.68 0 0 Z " fill="#E0DFE7" transform="translate(215,216)"/>
<path d="M0 0 C0.99 0 1.98 0 3 0 C3 2.31 3 4.62 3 7 C2.01 7 1.02 7 0 7 C0 4.69 0 2.38 0 0 Z " fill="#E0DBE9" transform="translate(347,353)"/>
<path d="M0 0 C0.99 0.33 1.98 0.66 3 1 C3 1.99 3 2.98 3 4 C0.5 6.1875 0.5 6.1875 -2 8 C-1.125 1.125 -1.125 1.125 0 0 Z " fill="#E3E0EA" transform="translate(277,288)"/>
<path d="M0 0 C2.92824652 0.97608217 4.61426621 2.10786631 7 4 C3.23375329 5.25541557 1.62811066 4.37061958 -2 3 C-1.34 2.01 -0.68 1.02 0 0 Z " fill="#ECEAF4" transform="translate(249,210)"/>
<path d="M0 0 C0.66 0.33 1.32 0.66 2 1 C2.33 1.99 2.66 2.98 3 4 C0.39417629 4.93065133 -0.64198224 5.14917407 -3.25 4.0625 C-3.8275 3.711875 -4.405 3.36125 -5 3 C-2.625 1.4375 -2.625 1.4375 0 0 Z " fill="#595567" transform="translate(259,162)"/>
<path d="M0 0 C0 1.65 0 3.3 0 5 C-2.97 4.505 -2.97 4.505 -6 4 C-5.67 3.01 -5.34 2.02 -5 1 C-3 0 -3 0 0 0 Z " fill="#4E4C5C" transform="translate(313,187)"/>
<path d="M0 0 C0.66 0.33 1.32 0.66 2 1 C1.625 3.4375 1.625 3.4375 1 6 C0.01 6.495 0.01 6.495 -1 7 C-1.625 4.625 -1.625 4.625 -2 2 C-1.34 1.34 -0.68 0.68 0 0 Z " fill="#EEEEF5" transform="translate(217,142)"/>
<path d="M0 0 C2.96175123 0.61277612 4.38058783 1.25372522 7 3 C7 3.66 7 4.32 7 5 C4.0625 4.1875 4.0625 4.1875 1 3 C0.67 2.01 0.34 1.02 0 0 Z " fill="#E6E4EC" transform="translate(257,137)"/>
<path d="M0 0 C1.8871875 0.061875 1.8871875 0.061875 3.8125 0.125 C3.8125 0.455 3.8125 0.785 3.8125 1.125 C2.3562328 1.48756858 0.89738815 1.83979793 -0.5625 2.1875 C-1.78066406 2.48333984 -1.78066406 2.48333984 -3.0234375 2.78515625 C-5.1875 3.125 -5.1875 3.125 -7.1875 2.125 C-4.09861478 0.06574319 -3.47814073 -0.1140374 0 0 Z " fill="#D3D1DC" transform="translate(250.1875,124.875)"/>
<path d="M0 0 C2.125 0.375 2.125 0.375 4 1 C4 1.66 4 2.32 4 3 C2.35 3.66 0.7 4.32 -1 5 C-1.33 4.01 -1.66 3.02 -2 2 C-1.34 1.34 -0.68 0.68 0 0 Z " fill="#EFEFF6" transform="translate(220,121)"/>
</svg>
