<svg xmlns="http://www.w3.org/2000/svg" viewBox="0 0 512 512" width="100%" height="100%">
  <!-- Background Gradient -->
  <defs>
    <linearGradient id="bgGrad" x1="0%" y1="0%" x2="100%" y2="100%">
      <stop offset="0%" stop-color="#4f46e5" />
      <stop offset="100%" stop-color="#06b6d4" />
    </linearGradient>
    <linearGradient id="penGrad" x1="0%" y1="100%" x2="100%" y2="0%">
      <stop offset="0%" stop-color="#fbbf24" />
      <stop offset="50%" stop-color="#f59e0b" />
      <stop offset="100%" stop-color="#d97706" />
    </linearGradient>
    <filter id="shadow" x="-10%" y="-10%" width="120%" height="120%">
      <feDropShadow dx="0" dy="16" stdDeviation="16" flood-color="#000000" flood-opacity="0.25"/>
    </filter>
  </defs>
  
  <!-- Background Rounded Rect -->
  <rect width="512" height="512" rx="128" fill="url(#bgGrad)" />
  
  <!-- Document Sheet with shadow -->
  <rect x="128" y="96" width="256" height="320" rx="24" fill="#ffffff" filter="url(#shadow)" />
  
  <!-- Text Lines -->
  <rect x="176" y="160" width="160" height="12" rx="6" fill="#cbd5e1" />
  <rect x="176" y="208" width="160" height="12" rx="6" fill="#cbd5e1" />
  <rect x="176" y="256" width="128" height="12" rx="6" fill="#cbd5e1" />
  <rect x="176" y="304" width="96" height="12" rx="6" fill="#cbd5e1" />
  
  <!-- Pen Icon (Font Awesome free style File-Pen) -->
  <g filter="url(#shadow)">
    <!-- Pen Body (rotated 45 deg) -->
    <path d="M 334.8 153.2 L 358.8 177.2 L 243.6 292.4 L 210 292.4 L 210 258.8 L 325.2 143.6 Z" fill="#1e293b" />
    <!-- Pen Tip / Nib -->
    <path d="M 210 292.4 L 210 258.8 L 220 248.8 L 230 258.8 L 220 268.8 L 210 292.4 Z" fill="url(#penGrad)" />
    <!-- Pen Cap / Top -->
    <path d="M 325.2 143.6 L 334.8 153.2 L 358.8 129.2 C 364.8 123.2 364.8 113.6 358.8 107.6 C 352.8 101.6 343.2 101.6 337.2 107.6 Z" fill="#64748b" />
  </g>
</svg>
